<svg xmlns="http://www.w3.org/2000/svg" viewBox="0 0 64 64" fill="#D42426">
  <ellipse cx="32" cy="32" rx="28" ry="32"/>
  <ellipse cx="32" cy="28" rx="20" ry="18" fill="#F5D6A0"/>
  <ellipse cx="24" cy="24" rx="3" ry="4" fill="#1A1A1A"/>
  <ellipse cx="40" cy="24" rx="3" ry="4" fill="#1A1A1A"/>
  <path d="M18 33 C22 40, 26 42, 32 42 C38 42, 42 40, 46 33 C42 36, 38 37, 32 37 C26 37, 22 36, 18 33Z" fill="#8B4513"/>
  <path d="M20 30 C24 34, 28 35, 32 35 C36 35, 40 34, 44 30 C40 28, 36 27, 32 27 C28 27, 24 28, 20 30Z" fill="#1A1A1A"/>
</svg>
